PathFileType	4	(X/Y/Z)	C:/Users/opensim2020/Desktop/walking_exp_matlab/subject01_walking07_straight_01.trc																																																																																																																															
DataRate	CameraRate	NumFrames	NumMarkers	Units	OrigDataRate	OrigDataStartFrame	OrigNumFrames																																																																																																																											
100	100	4	43	mm	100	901	282																																																																																																																											
Frame#	Time	LFHD			RFHD			LBHD			RBHD			C7			T10			CLAV			STRN			RBAK			LSHO			LUPA			LELB			LFRM			LWRA			LWRB			LFIN			RSHO			RUPA			RELB			RFRM			RWRA			RWRB			RFIN			LASI			RASI			LPSI			RPSI			LTHI			LKNE			LTIB			LANK			LHEE			LTOE			RTHI			RKNE			RTIB			RANK			RHEE			RTOE			*39			*40			*41			*42		
		X1	Y1	Z1	X2	Y2	Z2	X3	Y3	Z3	X4	Y4	Z4	X5	Y5	Z5	X6	Y6	Z6	X7	Y7	Z7	X8	Y8	Z8	X9	Y9	Z9	X10	Y10	Z10	X11	Y11	Z11	X12	Y12	Z12	X13	Y13	Z13	X14	Y14	Z14	X15	Y15	Z15	X16	Y16	Z16	X17	Y17	Z17	X18	Y18	Z18	X19	Y19	Z19	X20	Y20	Z20	X21	Y21	Z21	X22	Y22	Z22	X23	Y23	Z23	X24	Y24	Z24	X25	Y25	Z25	X26	Y26	Z26	X27	Y27	Z27	X28	Y28	Z28	X29	Y29	Z29	X30	Y30	Z30	X31	Y31	Z31	X32	Y32	Z32	X33	Y33	Z33	X34	Y34	Z34	X35	Y35	Z35	X36	Y36	Z36	X37	Y37	Z37	X38	Y38	Z38	X39	Y39	Z39	X40	Y40	Z40	X41	Y41	Z41	X42	Y42	Z42	X43	Y43	Z43
																																																																																																																																		
247	2.46	694.25885	1665.42139	1311.10547	740.46039	1673.51904	1415.89063	581.09296	1633.84302	1354.83276	626.41339	1641.66394	1465.98523	538.30786	1436.99316	1396.09045	504.18533	1142.66443	1413.42188	679.99603	1367.29272	1386.38782	723.34985	1213.11304	1384.11951	486.9404	1244.27881	1481.24609	609.41986	1391.91223	1230.19128	583.99048	1204.69263	1151.00562	583.68311	1052.23474	1152.27051	640.15228	952.59882	1125.76147	742.27295	856.16724	1139.48486	687.65839	840.24139	1119.22681	747.91858	780.76257	1107.85974	629.49548	1400.86975	1541.9856	574.08759	1204.18005	1649.46826	574.39362	1078.76538	1654.02393	607.44177	962.16833	1685.12305	689.55511	847.77325	1662.19702	649.646	848.25861	1705.23193	688.34448	770.73169	1699.09521	672.50623	937.23328	1295.45532	689.28992	942.59021	1511.53833	490.19363	945.96667	1364.71167	505.06863	947.78284	1510.13757	646.17261	601.46619	1257.55688	641.93579	467.31293	1280.88037	583.51746	285.93829	1281.66724	550.37433	73.63931	1347.00012	506.05475	46.53497	1400.55811	696.98315	36.63306	1336.43335	736.16748	622.96863	1585.63843	780.10144	471.61966	1566.91724	653.02893	349.57303	1573.57544	527.16589	185.95631	1532.19556	468.59503	176.13091	1479.1283	615.12512	74.11658	1540.86304	725.25555	1707.29065	1394.57446	1973.18896	1023.22186	-3102.00049	2012.5592	1022.03906	-3140.61108	NaN	NaN	NaN
248	2.47	703.02942	1665.84106	1310.40881	749.45361	1673.53955	1415.13916	589.94659	1633.97534	1354.203	635.45795	1641.65112	1465.354	547.12787	1437.27478	1395.02783	512.59137	1142.90405	1412.03149	688.75226	1367.29761	1385.47473	731.93152	1213.10229	1383.04651	495.49344	1244.3645	1479.80737	618.38605	1392.31519	1229.39429	593.77057	1205.20862	1149.56641	595.00897	1052.57434	1150.11243	653.9021	954.23315	1123.45911	758.6933	860.716	1136.9137	704.5304	843.24146	1116.80444	766.45496	785.71198	1105.06519	638.08704	1400.8562	1541.05957	581.64502	1204.20105	1648.08923	581.461	1078.88367	1652.61133	613.1908	962.11023	1684.0802	694.45374	846.94006	1662.04846	654.2157	847.92181	1704.75085	692.25159	770.08429	1699.17444	680.51276	937.14929	1294.18762	697.76776	943.03992	1510.06689	498.36508	945.94025	1364.04639	513.71649	947.65173	1509.2489	650.78607	601.21869	1257.03687	644.80609	466.98108	1280.37036	585.31433	286.108	1281.4574	550.4632	73.7768	1347.02087	506.38547	47.19242	1400.77625	697.1463	36.58835	1336.43103	748.1532	624.79572	1584.79395	793.9071	473.74496	1565.50952	671.90033	345.83246	1572.43701	552.74939	177.55193	1531.04236	494.54901	164.38889	1477.67688	646.53717	71.14642	1540.48633	734.1864	1707.34521	1393.88184	1973.14685	1023.38501	-3101.82983	2012.59021	1022.19141	-3140.74683	NaN	NaN	NaN
249	2.48	711.82861	1665.7439	1309.71875	758.42108	1673.48425	1414.38916	598.85559	1633.99011	1353.63037	644.45074	1641.53979	1464.71899	555.91046	1437.23865	1394.06238	521.03741	1143.0896	1410.73694	697.56152	1367.2262	1384.54297	740.49207	1212.98889	1381.99585	504.04492	1244.41345	1478.47925	627.27374	1392.54016	1228.48523	603.78033	1205.59338	1148.14514	606.31537	1052.88025	1147.94226	667.63068	955.88892	1121.14001	774.96179	865.2937	1134.45764	721.26257	846.34467	1114.46899	784.77307	790.6651	1102.34827	646.78186	1400.93042	1540.32507	589.30109	1204.1427	1646.8147	588.57697	1079.00549	1651.34314	619.07465	962.10175	1683.17859	699.47601	846.13007	1662.0415	658.88483	847.49835	1704.23694	696.13672	769.33411	1699.23193	688.50482	937.01862	1293.1405	706.28564	943.43353	1508.77319	506.53546	945.82977	1363.45081	522.18286	947.64001	1508.70288	655.43658	600.96301	1256.49219	647.73615	466.72211	1279.87634	587.23767	286.24762	1281.16235	550.65454	74.12531	1346.78381	506.19199	48.25761	1401.02844	697.25494	36.5308	1336.3916	758.77222	625.40161	1582.9613	806.92218	475.32303	1564.03247	690.5105	341.92422	1571.40771	578.77429	168.66806	1529.88196	521.0509	152.04097	1476.25513	678.57465	68.31097	1540.32227	743.12604	1707.30334	1393.2041	1973.11304	1023.40118	-3101.99927	2012.52808	1022.04523	-3140.64185	NaN	NaN	NaN
250	2.49	720.70361	1665.78064	1309.07861	767.40662	1673.38904	1413.7522	607.65314	1634.01331	1353.14185	653.47113	1641.34912	1464.104	564.78699	1437.3009	1393.11609	529.44196	1143.24329	1409.70557	706.34528	1367.12219	1383.755	749.10284	1212.79651	1380.96521	512.63971	1244.42139	1477.29712	636.10248	1392.9021	1227.79834	613.87616	1205.96021	1146.72314	617.71295	1053.15845	1145.78735	681.37439	957.54639	1118.95215	791.04199	869.93427	1132.14209	737.90967	849.50708	1112.12439	802.95374	795.7124	1099.70972	655.39349	1400.6261	1539.32825	597.02594	1204.05957	1645.59656	595.7771	1079.06897	1650.1969	625.0274	962.03912	1682.37854	704.61859	845.32819	1662.08191	663.62781	847.09149	1703.87695	700.11768	768.48102	1699.2572	696.85687	936.90131	1291.83459	714.84949	943.69324	1507.58972	514.54749	945.93927	1362.94568	530.72815	947.43964	1508.06079	660.05688	600.74982	1256.11438	650.71497	466.43491	1279.46155	589.22833	286.43674	1280.88477	551.37103	74.7112	1346.8385	506.05731	49.19447	1400.87134	697.39484	36.50658	1336.38196	770.00043	626.8266	1582.18433	819.51373	477.03912	1562.88525	708.99396	338.12329	1570.52637	605.67352	159.91737	1529.19751	548.62231	140.21632	1475.8291	710.78729	65.57581	1540.07654	752.05975	1707.20874	1392.57202	1973.03772	1023.67682	-3101.94775	2012.59094	1022.01038	-3140.7937	NaN	NaN	NaN
